<svg width="15" height="10" viewBox="0 0 15 10" fill="none" xmlns="http://www.w3.org/2000/svg">
<style>path{fill: #4d4d4d}@media (prefers-color-scheme:dark){path{fill:white;opacity:.5}}</style>
<path d="M3.185 9.75C2.21433 9.75 1.443 9.51167 0.871 9.035C0.299 8.54967 0.00866665 7.89533 0 7.072H1.625C1.625 7.462 1.76367 7.76967 2.041 7.995C2.327 8.22033 2.71267 8.333 3.198 8.333C3.666 8.333 4.03 8.22467 4.29 8.008C4.55867 7.78267 4.693 7.47933 4.693 7.098C4.693 6.77733 4.59767 6.5 4.407 6.266C4.21633 6.032 3.952 5.86733 3.614 5.772L2.522 5.473C1.78533 5.28233 1.21333 4.94 0.806 4.446C0.398667 3.952 0.195 3.354 0.195 2.652C0.195 1.846 0.463667 1.20467 1.001 0.728C1.53833 0.242667 2.262 0 3.172 0C4.082 0 4.80567 0.238333 5.343 0.714999C5.889 1.183 6.16633 1.81567 6.175 2.613H4.55C4.55 2.24033 4.42867 1.95 4.186 1.742C3.94333 1.52533 3.601 1.417 3.159 1.417C2.73433 1.417 2.405 1.51667 2.171 1.716C1.937 1.91533 1.82 2.197 1.82 2.561C1.82 2.89033 1.911 3.172 2.093 3.406C2.275 3.64 2.53067 3.80033 2.86 3.887L3.991 4.199C4.73633 4.39833 5.30833 4.74067 5.707 5.226C6.11433 5.71133 6.318 6.31367 6.318 7.033C6.318 7.57033 6.188 8.047 5.928 8.463C5.668 8.87033 5.29967 9.18667 4.823 9.412C4.355 9.63733 3.809 9.75 3.185 9.75Z"/>
<path d="M11.7729 9.62H10.1349V1.638H7.65192V0.13H14.2559V1.638H11.7729V9.62Z"/>
</svg>
